<?xml version="1.0" standalone="no"?>
<!DOCTYPE svg PUBLIC "-//W3C//DTD SVG 20010904//EN"
 "http://www.w3.org/TR/2001/REC-SVG-20010904/DTD/svg10.dtd">
<svg version="1.0" xmlns="http://www.w3.org/2000/svg"
 width="1280.000000pt" height="1280.000000pt" viewBox="0 0 1280.000000 1280.000000"
 preserveAspectRatio="xMidYMid meet">
<g transform="translate(0.000000,1280.000000) scale(0.100000,-0.100000)"
fill="#000000" stroke="none">
<path d="M5545 12685 c-112 -16 -159 -28 -262 -71 -256 -105 -487 -350 -627
-661 -80 -179 -125 -344 -167 -608 -18 -118 -15 -543 5 -670 8 -55 20 -131 26
-170 17 -112 68 -308 121 -469 59 -175 74 -211 179 -429 34 -71 78 -152 97
-180 19 -29 44 -68 54 -87 11 -19 30 -49 42 -65 12 -17 40 -55 62 -85 113
-158 348 -400 495 -511 397 -301 819 -405 1210 -297 83 23 255 109 334 167
155 115 303 305 401 514 207 443 240 1033 94 1661 -27 115 -117 380 -174 511
-118 273 -264 514 -450 745 -233 289 -520 507 -832 631 -108 43 -170 57 -313
74 -144 17 -172 17 -295 0z"/>
<path d="M9140 11564 c-119 -15 -268 -66 -345 -118 -22 -14 -58 -38 -80 -52
-59 -40 -184 -170 -244 -254 -158 -224 -258 -522 -296 -880 -52 -487 47 -1084
271 -1628 50 -122 209 -438 248 -492 18 -25 44 -66 59 -91 43 -75 192 -275
290 -388 303 -351 638 -590 957 -684 128 -38 221 -51 365 -50 158 0 279 29
419 97 193 94 377 298 494 546 169 357 224 876 146 1360 -65 402 -166 733
-326 1070 -201 422 -430 754 -699 1015 -300 291 -580 457 -894 530 -68 16
-295 28 -365 19z"/>
<path d="M2220 10748 c-337 -57 -613 -228 -790 -488 -253 -373 -277 -915 -64
-1457 60 -155 165 -368 228 -462 77 -118 135 -203 159 -236 129 -175 370 -421
556 -570 336 -267 748 -473 1071 -534 63 -12 140 -27 170 -34 92 -19 410 -15
515 7 289 59 508 177 667 360 134 155 211 312 264 541 27 114 27 457 1 600
-41 220 -137 512 -207 630 -10 17 -21 41 -25 54 -11 35 -111 201 -210 347
-232 345 -636 718 -1010 932 -206 118 -326 171 -535 236 -70 22 -108 32 -212
56 -131 29 -452 39 -578 18z"/>
<path d="M6385 7809 c-264 -33 -457 -97 -641 -212 -315 -197 -564 -539 -659
-908 -17 -65 -17 -70 15 -454 27 -323 42 -877 36 -1365 -7 -571 -24 -909 -66
-1295 -43 -402 -57 -511 -95 -780 -33 -226 -32 -221 -71 -448 -49 -284 -44
-419 26 -685 54 -205 154 -420 285 -610 101 -147 313 -367 443 -460 151 -108
360 -214 515 -262 244 -75 556 -93 795 -45 68 14 166 41 217 60 51 19 95 35
98 35 17 0 252 143 317 192 41 31 172 157 290 279 211 218 408 398 606 552
112 87 346 245 444 301 69 39 84 48 193 109 329 185 972 395 1432 467 96 15
282 79 421 146 441 210 769 609 923 1124 133 443 111 916 -64 1390 -30 83
-125 272 -172 344 -26 39 -58 89 -72 110 -94 144 -294 359 -446 480 -175 140
-242 179 -700 405 -110 54 -279 138 -375 186 -96 48 -209 102 -250 120 -41 18
-169 76 -285 129 -263 122 -272 126 -375 174 -47 22 -130 59 -185 82 -55 23
-147 62 -204 87 -58 25 -186 78 -285 118 -100 40 -217 87 -261 105 -44 18
-114 45 -155 61 -41 16 -140 54 -220 84 -80 31 -197 74 -260 96 -63 23 -182
66 -265 96 -82 31 -168 62 -190 69 -22 7 -71 25 -110 39 -90 34 -264 71 -395
84 -115 12 -154 12 -255 0z"/>
<path d="M1477 7040 c-595 -114 -948 -540 -974 -1175 -18 -431 138 -913 444
-1377 244 -370 583 -697 979 -945 570 -356 1178 -470 1668 -313 182 58 325
147 458 282 303 308 404 764 293 1314 -84 413 -345 905 -672 1265 -274 303
-589 544 -933 715 -198 98 -254 122 -395 163 -228 68 -321 83 -555 87 -180 3
-231 0 -313 -16z"/>
</g>
</svg>
